<svg id="Layer_1" data-name="Layer 1" xmlns="http://www.w3.org/2000/svg" viewBox="0 0 37.4 37.4"><defs><style>.cls-1{fill:#046582;}</style></defs><g id="Bootstrap"><path class="cls-1" d="M25,22.6a3.92,3.92,0,0,0-2.7-.85H15.63v6.81h6.76A3.79,3.79,0,0,0,25,27.65a3.43,3.43,0,0,0,1-2.55A3.32,3.32,0,0,0,25,22.6ZM24,18.21A2.77,2.77,0,0,0,25,16a2.9,2.9,0,0,0-.83-2.32A3.61,3.61,0,0,0,21.86,13H15.63v6h6.23a3.44,3.44,0,0,0,2.24-.78ZM32.77,1.73H7.84A6.23,6.23,0,0,0,1.6,8V32.89a6.23,6.23,0,0,0,6.24,6.23H32.77A6.23,6.23,0,0,0,39,32.89V8A6.23,6.23,0,0,0,32.77,1.73ZM29.36,28a4.75,4.75,0,0,1-1.44,1.93,7,7,0,0,1-2.51,1.28,11.73,11.73,0,0,1-3.63.48h-10V9.86h10.6A7.55,7.55,0,0,1,27,11.2a4.77,4.77,0,0,1,1.78,4.07,4.61,4.61,0,0,1-.72,2.82,5.33,5.33,0,0,1-2.3,1.82h0a4.65,4.65,0,0,1,3.11,1.9A6.34,6.34,0,0,1,30,25.52,6,6,0,0,1,29.36,28Z" transform="translate(-1.6 -1.73)"/></g></svg>