<svg id="Layer_1" data-name="Layer 1" xmlns="http://www.w3.org/2000/svg" viewBox="0 0 31.53 36.03"><defs><style>.cls-1{fill:#046582;}.cls-2{fill:#fff;}</style></defs><polygon class="cls-1" points="28.58 32.53 15.76 36.03 2.96 32.53 0 0 31.53 0 28.58 32.53"/><polygon class="cls-1" points="15.76 2.25 15.76 33.5 26.16 30.41 28.93 2.25 15.76 2.25"/><polygon class="cls-2" points="25.18 6.76 6.32 6.76 6.76 11.26 15.76 11.26 7.04 14.63 7.45 19.14 19.71 19.14 19.32 23.65 15.76 24.76 12.23 23.62 11.86 21.39 7.66 21.39 8.18 27.01 15.76 29.27 23.34 27.01 24.46 14.63 15.8 14.63 24.77 11.26 25.18 6.76"/></svg>