<svg id="Capa_1" data-name="Capa 1" xmlns="http://www.w3.org/2000/svg" viewBox="0 0 492.91 512"><defs><style>.cls-1{fill:#046582;}</style></defs><path class="cls-1" d="M333.2,34.21,330.8,0,9.55,22.59,39.86,453.71l44-3.1V512H405.92V476.72l50.26,5.42,46.27-429.7ZM83.87,420.52,67.7,421.66,41.6,50.43,303,32.05l3.36,47.77H83.87ZM375.9,482h-262V109.84h262Zm53.65-32.91-23.63-2.54V79.82H336.41l-1.06-15.18,134,14.43Z" transform="translate(-9.55)"/><rect class="cls-1" x="137.46" y="296.75" width="195.8" height="30.02"/><rect class="cls-1" x="137.46" y="350.14" width="195.8" height="30.02"/><rect class="cls-1" x="137.46" y="403.54" width="195.8" height="30.02"/><path class="cls-1" d="M201.38,229.29c-13.23,0-22.15-9.18-22.15-23.64S188.15,182,201.38,182c8.52,0,15.13,4.06,20.67,11.08l20.13-18c-9.32-12.16-23.91-18.92-42.42-18.92-30.39,0-52.68,20.4-52.68,49.44s22.29,49.45,52.68,49.45c18.51,0,33.1-6.76,42.42-18.92l-20.13-18C216.51,225.24,209.9,229.29,201.38,229.29Z" transform="translate(-9.55)"/><polygon class="cls-1" points="311.53 158.37 288.43 213.62 265.87 158.37 231.56 158.37 271.54 252.93 302.88 252.93 342.87 158.37 311.53 158.37"/></svg>