<svg id="Layer_1" data-name="Layer 1" xmlns="http://www.w3.org/2000/svg" viewBox="0 0 25 24.41"><defs><style>.cls-1{fill:none;stroke:#046582;stroke-miterlimit:10;}</style></defs><path class="cls-1" d="M12,.3A12,12,0,0,0,8.2,23.68c.61.12.82-.26.82-.58s0-1,0-2c-3.34.73-4-1.61-4-1.61A3.19,3.19,0,0,0,3.63,17.7C2.55,17,3.72,17,3.72,17a2.55,2.55,0,0,1,1.84,1.24,2.55,2.55,0,0,0,3.49,1,2.59,2.59,0,0,1,.76-1.6c-2.66-.3-5.47-1.33-5.47-5.93A4.63,4.63,0,0,1,5.58,8.45a4.26,4.26,0,0,1,.1-3.18S6.69,5,9,6.5a11.45,11.45,0,0,1,6,0C17.26,5,18.27,5.27,18.27,5.27a4.42,4.42,0,0,1,.12,3.18,4.67,4.67,0,0,1,1.23,3.22c0,4.61-2.81,5.63-5.48,5.92A2.88,2.88,0,0,1,15,19.81c0,1.61,0,2.9,0,3.29s.21.69.82.57A12,12,0,0,0,12,.3" transform="translate(0.5 0.2)"/></svg>