<svg id="Layer_1" data-name="Layer 1" xmlns="http://www.w3.org/2000/svg" viewBox="0 0 38 38"><defs><style>.cls-1{fill:#046582;fill-rule:evenodd;}</style></defs><path class="cls-1" d="M23,27.33c3.7-.44,7.64-1.78,7.64-8.18a6.41,6.41,0,0,0-1.68-4.44,6,6,0,0,0-.2-4.38S27.39,9.9,24.23,12A16.35,16.35,0,0,0,20,11.41a15.81,15.81,0,0,0-4.21.61c-3.19-2.12-4.54-1.69-4.54-1.69a6,6,0,0,0-.2,4.38,6.37,6.37,0,0,0-1.69,4.44c0,6.4,3.94,7.74,7.64,8.18A3.77,3.77,0,0,0,16,29.59a3.6,3.6,0,0,1-4.88-1.38,3.44,3.44,0,0,0-2.53-1.69s-1.65,0-.13,1A4.31,4.31,0,0,1,10.26,30s1,3.19,5.65,2.18V35c0,.44-.33,1-1.17.81a16.61,16.61,0,1,1,10.53,0c-.85.17-1.18-.33-1.18-.81V30.39A3.87,3.87,0,0,0,23,27.33Zm16-7.27A19,19,0,1,0,20,39,19,19,0,0,0,39,20.06Z" transform="translate(-1 -1.04)"/></svg>