<svg id="Layer_1" data-name="Layer 1" xmlns="http://www.w3.org/2000/svg" viewBox="0 0 27.07 38.19"><defs><style>.cls-1{fill:#046582;}</style></defs><polygon class="cls-1" points="4.18 3.44 5.75 3.44 5.75 5.17 7.48 5.17 7.48 0 5.75 0 5.75 1.71 4.18 1.71 4.18 0 2.45 0 2.45 5.17 4.18 5.17 4.18 3.44"/><polygon class="cls-1" points="9.75 5.17 11.48 5.17 11.48 1.71 13 1.71 13 0 8.23 0 8.23 1.71 9.75 1.71 9.75 5.17"/><polygon class="cls-1" points="15.44 2.6 16.63 4.44 16.66 4.44 17.84 2.6 17.84 5.17 19.57 5.17 19.57 0 17.77 0 16.66 1.81 15.55 0 13.75 0 13.75 5.17 15.44 5.17 15.44 2.6"/><polygon class="cls-1" points="24.57 3.46 22.14 3.46 22.14 0 20.42 0 20.42 5.17 24.57 5.17 24.57 3.46"/><path class="cls-1" d="M6.65,8.25,9.12,35.93l11,3.07,11.09-3.07L33.72,8.25ZM28.37,17.3h-13l.31,3.48H28.06L27.13,31.2l-7,1.93h0l-7-1.93-.48-5.45h3.4l.25,2.81,3.78,1h0l3.8-1,.39-4.4H12.58L11.66,13.9h17Z" transform="translate(-6.65 -0.81)"/></svg>