<svg id="svg3120" xmlns="http://www.w3.org/2000/svg" viewBox="0 0 106.84 134.59"><defs><style>.cls-1{fill:#046582;}</style></defs><g id="layer7"><path id="path3993" class="cls-1" d="M13.32,119.55V142.7h5.91v-6l5.37,5.38h9.06l-7.18-7.19s5.17-.09,5.56-7.56c0-6.87-5.18-7.75-11.16-7.75Zm6.19,6.28H24.6V130H19.51Z" transform="translate(-7.25 -8.11)"/><path id="path3997" class="cls-1" d="M45.07,119.64c-3.23,0-7.72.28-7.72,6.37v16.1h6.06v-3.94h5.88V142h6.09V125.14c0-5.29-5.88-5.5-9-5.5Zm-1.56,5.81H49.2v6.35H43.51Z" transform="translate(-7.25 -8.11)"/><rect id="rect4001" class="cls-1" x="54.2" y="111.54" width="6.27" height="22.15"/><path id="path4003" class="cls-1" d="M74.3,120V142.1H89.39v-5.88H80.47V119.85Z" transform="translate(-7.25 -8.11)"/><path id="path4005" class="cls-1" d="M109.39,119.75v6H99.29v2.16h4.31c2.26,0,7-.1,7,7s-3.23,7.45-9.8,7.45H92.82v-5.4h9.12c2.74,0,2.89-.89,2.89-1.67s-1.4-1.14-4.25-1.14-8.15-1.4-8.15-6.89,2.74-7.55,8.23-7.55,8.73.1,8.73.1Z" transform="translate(-7.25 -8.11)"/></g><g id="layer6"><path id="path3966" class="cls-1" d="M18.82,113H71S59.4,86.72,62.34,62.61s22-35.09,32.74-36.27,16.66,5.49,16.66,5.49l2.35-3.53S98.61,12.62,79,14.38,45.87,29.09,37.44,44.77,24.11,71.43,20.78,87.9,18.82,113,18.82,113Z" transform="translate(-7.25 -8.11)"/><path id="path3968" class="cls-1" d="M8.43,86.72l10.19.78L16.86,97.7,7.25,96.52Z" transform="translate(-7.25 -8.11)"/><path id="path3970" class="cls-1" d="M24.5,65.16l2.75-7.65-9-3.53-2.94,8.24Z" transform="translate(-7.25 -8.11)"/><path id="path3972" class="cls-1" d="M37.25,38.89l5.29-6.27-6.86-4.51-5.49,6.07Z" transform="translate(-7.25 -8.11)"/><path id="path3974" class="cls-1" d="M51.16,14.58l4.71,5.68,6.47-3.72-4.71-5.29Z" transform="translate(-7.25 -8.11)"/><path id="path3976" class="cls-1" d="M74.1,8.11l1.18,5.69,8-.2-.79-5.1Z" transform="translate(-7.25 -8.11)"/><path id="path3978" class="cls-1" d="M101.35,14.19l-.2,3.53,5.49,2.94,1.18-1.77Z" transform="translate(-7.25 -8.11)"/><path id="path3980" class="cls-1" d="M100.17,29.28v2.94l5.3.59V30.46Z" transform="translate(-7.25 -8.11)"/><path id="path3982" class="cls-1" d="M83.32,31.83l2.54,4.7,3.73-2.94-.79-3.13Z" transform="translate(-7.25 -8.11)"/><path id="path3984" class="cls-1" d="M75.28,37.91l3.92,5.88-2.36,4.12-5.68-6.28Z" transform="translate(-7.25 -8.11)"/><path id="path3986" class="cls-1" d="M67.44,54.18l-2.55,5.1L71.55,65l1.57-6.47Z" transform="translate(-7.25 -8.11)"/><path id="path3988" class="cls-1" d="M64.69,72l-.39,6.86,8.23,3.53-.39-6.47Z" transform="translate(-7.25 -8.11)"/><path id="path3990" class="cls-1" d="M67,96.33l2,7,10.39.59-3.72-7.64Z" transform="translate(-7.25 -8.11)"/></g></svg>