<svg id="Layer_1" data-name="Layer 1" xmlns="http://www.w3.org/2000/svg" viewBox="0 0 38.74 38.74"><defs><style>.cls-1{fill:#046582;}.cls-2{fill:#f7f7f7;}</style></defs><circle class="cls-1" cx="19.37" cy="19.37" r="19.37"/><g id="Layer_1-2" data-name="Layer 1"><path class="cls-2" d="M13.85,12.58h3.44v9.68c0,4.35-2.09,5.89-5.41,5.89a8.32,8.32,0,0,1-2.53-.36l.4-2.8a5.59,5.59,0,0,0,1.77.27c1.46,0,2.37-.67,2.37-3Z" transform="translate(-0.26 -0.49)"/><path class="cls-2" d="M20.33,24.36a8.8,8.8,0,0,0,3.83.94c1.58,0,2.41-.67,2.41-1.69S25.86,22.1,24,21.47c-2.53-.91-4.23-2.33-4.23-4.58,0-2.57,2.21-4.54,5.81-4.54a8.81,8.81,0,0,1,3.91.79l-.79,2.76a7.52,7.52,0,0,0-3.16-.71c-1.5,0-2.22.71-2.22,1.46,0,1,.83,1.42,2.85,2.18,2.69,1,3.95,2.4,3.95,4.58,0,2.57-1.94,4.74-6.16,4.74a10.21,10.21,0,0,1-4.35-.95Z" transform="translate(-0.26 -0.49)"/></g></svg>