<svg id="Layer_1" data-name="Layer 1" xmlns="http://www.w3.org/2000/svg" viewBox="0 0 47.9 36.6"><defs><style>.cls-1{fill:#046582;}</style></defs><g id="Icon-Envelope"><path id="Fill-3" class="cls-1" d="M55.5,18.8l-1.9-1.9L36,34.5a5.8,5.8,0,0,1-8.1,0L10.3,17,8.4,18.9,21.5,32,8.4,45.1,10.3,47,23.4,33.9,26,36.5a8.21,8.21,0,0,0,11.8,0l2.6-2.6L53.5,47l1.9-1.9L42.3,32,55.5,18.8" transform="translate(-8.1 -13.8)"/><path id="Fill-4" class="cls-1" d="M51.8,50.4H12.3a4.23,4.23,0,0,1-4.2-4.2V18a4.23,4.23,0,0,1,4.2-4.2H51.8A4.23,4.23,0,0,1,56,18V46.2a4.23,4.23,0,0,1-4.2,4.2ZM12.2,16.5a1.37,1.37,0,0,0-1.4,1.4V46.1a1.37,1.37,0,0,0,1.4,1.4H51.7a1.37,1.37,0,0,0,1.4-1.4V17.9a1.37,1.37,0,0,0-1.4-1.4Z" transform="translate(-8.1 -13.8)"/></g></svg>