<svg id="Layer_1" data-name="Layer 1" xmlns="http://www.w3.org/2000/svg" viewBox="0 0 37.65 38.83"><defs><style>.cls-1,.cls-2,.cls-3,.cls-4,.cls-5,.cls-6{fill:#046582;}.cls-1{stroke:#000;stroke-width:3.26px;}.cls-1,.cls-5,.cls-6{stroke-miterlimit:4.79;}.cls-3,.cls-4,.cls-5,.cls-6{stroke:#fff;}.cls-3,.cls-4{stroke-linecap:round;stroke-width:1.09px;}.cls-3{stroke-linejoin:round;}.cls-4{stroke-linejoin:bevel;}.cls-5{stroke-width:0.36px;}.cls-6{stroke-width:0.18px;}</style></defs><path class="cls-1" d="M29.11,28.9c.25-2.06.17-2.36,1.71-2l.39,0a8.92,8.92,0,0,0,3.62-.61c2-.91,3.11-2.42,1.18-2-4.38.9-4.68-.58-4.68-.58C36,16.83,37.89,8.11,36.22,6,31.67.15,23.78,2.9,23.65,3h0a14.9,14.9,0,0,0-2.92-.3,7.2,7.2,0,0,0-4.63,1.38S2-1.73,2.63,11.35c.14,2.79,4,21.07,8.58,15.55,1.68-2,3.31-3.73,3.31-3.73a4.21,4.21,0,0,0,2.78.71l.08-.06a2.6,2.6,0,0,0,0,.78c-1.19,1.32-.84,1.56-3.2,2s-1,1.38-.07,1.6a4.86,4.86,0,0,0,5.43-1.76l-.07.28c.46.37.43,2.67.49,4.31a15.42,15.42,0,0,0,.52,4.08c.33.9.72,3.23,3.83,2.56,2.6-.55,4.59-1.36,4.77-8.81" transform="translate(-0.98 -0.63)"/><path class="cls-2" d="M36,24.28c-4.38.9-4.68-.58-4.68-.58C36,16.83,37.89,8.11,36.22,6,31.67.15,23.78,2.9,23.65,3h0a14.9,14.9,0,0,0-2.92-.3,7.2,7.2,0,0,0-4.63,1.38S2-1.73,2.63,11.35c.14,2.79,4,21.07,8.58,15.55,1.68-2,3.31-3.73,3.31-3.73a4.21,4.21,0,0,0,2.78.71l.08-.06a2.6,2.6,0,0,0,0,.78c-1.19,1.32-.84,1.56-3.2,2s-1,1.38-.07,1.6a4.84,4.84,0,0,0,5.42-1.76l-.06.28c.46.37.78,2.42.73,4.27a12,12,0,0,0,.27,4.12c.37,1,.73,3.23,3.84,2.56,2.6-.56,3.95-2,4.14-4.41.13-1.71.43-1.45.45-3l.24-.73c.28-2.32,0-3.07,1.65-2.72l.39,0a8.92,8.92,0,0,0,3.62-.61c2-.91,3.11-2.42,1.18-2Z" transform="translate(-0.98 -0.63)"/><path class="cls-3" d="M19.75,25.61c-.12,4.31,0,8.66.46,9.72a3.46,3.46,0,0,0,4.43,2.44c2.6-.56,3.55-1.63,4-4,.3-1.75.88-6.62,1-7.61M16,4S1.94-1.79,2.6,11.3c.14,2.78,4,21.07,8.58,15.54,1.68-2,3.2-3.6,3.2-3.6M23.63,2.92c-.49.15,7.83-3,12.56,3,1.67,2.13-.26,10.85-4.89,17.72" transform="translate(-0.98 -0.63)"/><path class="cls-4" d="M31.3,23.64s.3,1.49,4.68.58c1.93-.39.77,1.12-1.18,2-1.6.74-5.18.93-5.24-.09-.15-2.65,1.88-1.84,1.74-2.51S30.25,22.46,29.65,21c-.53-1.28-7.22-11.06,1.86-9.61.33-.07-2.37-8.63-10.86-8.77s-8.21,10.44-8.21,10.44" transform="translate(-0.98 -0.63)"/><path class="cls-3" d="M17.38,24.55c-1.19,1.32-.84,1.55-3.21,2s-1,1.37-.06,1.6a4.86,4.86,0,0,0,5.42-1.76,1.62,1.62,0,0,0-.73-2.23,1.06,1.06,0,0,0-1.42.35Z" transform="translate(-0.98 -0.63)"/><path class="cls-3" d="M17.3,24.52A6.14,6.14,0,0,1,18,21.74c.6-1.62,2-3.25.88-8.4-.83-3.84-6.4-.8-6.4-.28a26.54,26.54,0,0,1-.1,5.11,4.8,4.8,0,0,0,4.93,5.66" transform="translate(-0.98 -0.63)"/><path class="cls-5" d="M16,13a1,1,0,0,0,.79.72.86.86,0,0,0,.87-.48c0-.18-.33-.38-.78-.44s-.85,0-.88.2Z" transform="translate(-0.98 -0.63)"/><path class="cls-6" d="M29.87,12.62c0,.18-.32.65-.78.72a.84.84,0,0,1-.87-.49c0-.17.32-.37.78-.43s.85,0,.87.2Z" transform="translate(-0.98 -0.63)"/><path class="cls-3" d="M31.51,11.39c.07,1.4-.3,2.35-.35,3.83-.07,2.16,1,4.63-.63,7.1" transform="translate(-0.98 -0.63)"/></svg>