<svg id="Layer_1" data-name="Layer 1" xmlns="http://www.w3.org/2000/svg" viewBox="0 0 29.92 37.69"><defs><style>.cls-1{fill:#046582;}</style></defs><g id="layer7"><path id="path3993" class="cls-1" d="M6.7,32.52V39H8.35V37.32l1.51,1.51h2.53l-2-2s1.45,0,1.56-2.11c0-1.93-1.45-2.17-3.12-2.17Zm1.73,1.76H9.86v1.16H8.43Z" transform="translate(-5 -1.31)"/><path id="path3997" class="cls-1" d="M15.59,32.54c-.9,0-2.16.08-2.16,1.79v4.5h1.69v-1.1h1.65V38.8h1.71V34.08c0-1.48-1.65-1.54-2.52-1.54Zm-.44,1.63h1.6V36h-1.6Z" transform="translate(-5 -1.31)"/><rect id="rect4001" class="cls-1" x="15.18" y="31.23" width="1.76" height="6.2"/><path id="path4003" class="cls-1" d="M23.77,32.64v6.19H28V37.19H25.5V32.6Z" transform="translate(-5 -1.31)"/><path id="path4005" class="cls-1" d="M33.6,32.57v1.68H30.77v.61H32c.63,0,2,0,2,2S33,38.9,31.19,38.9H29V37.39h2.55c.77,0,.81-.25.81-.46s-.39-.32-1.19-.32a2.07,2.07,0,0,1-2.28-1.93c0-1.54.77-2.12,2.3-2.12s2.45,0,2.45,0Z" transform="translate(-5 -1.31)"/></g><g id="layer6"><path id="path3966" class="cls-1" d="M8.24,30.68H22.85s-3.25-7.35-2.42-14.11,6.16-9.82,9.16-10.15A5.62,5.62,0,0,1,34.26,8l.66-1s-4.34-4.39-9.83-3.9-9.28,4.12-11.64,8.51A39.69,39.69,0,0,0,8.79,23.66,22.11,22.11,0,0,0,8.24,30.68Z" transform="translate(-5 -1.31)"/><path id="path3968" class="cls-1" d="M5.33,23.33l2.85.21L7.69,26.4,5,26.07Z" transform="translate(-5 -1.31)"/><path id="path3970" class="cls-1" d="M9.83,17.29l.77-2.14-2.52-1-.82,2.31Z" transform="translate(-5 -1.31)"/><path id="path3972" class="cls-1" d="M13.4,9.93l1.48-1.75L13,6.91l-1.54,1.7Z" transform="translate(-5 -1.31)"/><path id="path3974" class="cls-1" d="M17.29,3.13l1.32,1.59,1.82-1L19.11,2.19Z" transform="translate(-5 -1.31)"/><path id="path3976" class="cls-1" d="M23.72,1.31l.33,1.6,2.24-.06-.22-1.43Z" transform="translate(-5 -1.31)"/><path id="path3978" class="cls-1" d="M31.35,3l-.06,1,1.54.82.33-.5Z" transform="translate(-5 -1.31)"/><path id="path3980" class="cls-1" d="M31,7.24v.83l1.48.16V7.57Z" transform="translate(-5 -1.31)"/><path id="path3982" class="cls-1" d="M26.3,8,27,9.27l1-.82-.23-.88Z" transform="translate(-5 -1.31)"/><path id="path3984" class="cls-1" d="M24.05,9.66l1.1,1.65-.66,1.15-1.6-1.76Z" transform="translate(-5 -1.31)"/><path id="path3986" class="cls-1" d="M21.85,14.21l-.71,1.43L23,17.24l.44-1.81Z" transform="translate(-5 -1.31)"/><path id="path3988" class="cls-1" d="M21.08,19.2,21,21.12l2.31,1-.11-1.81Z" transform="translate(-5 -1.31)"/><path id="path3990" class="cls-1" d="M21.73,26l.56,2,2.91.16-1-2.14Z" transform="translate(-5 -1.31)"/></g></svg>