<svg id="Layer_1" data-name="Layer 1" xmlns="http://www.w3.org/2000/svg" viewBox="0 0 37.53 28.14"><defs><style>.cls-1{fill:#046582;}</style></defs><g id="_288-sass" data-name="288-sass"><path class="cls-1" d="M34.31,21a7.71,7.71,0,0,0-3.4.8,7.21,7.21,0,0,1-.77-1.77,4.77,4.77,0,0,1-.06-1.48,11.14,11.14,0,0,1,.45-1.6c0-.06-.09-.38-.84-.39s-1.41.15-1.49.35a8.29,8.29,0,0,0-.31,1.12,27,27,0,0,1-2.29,4.41,4.61,4.61,0,0,1-.52-1.29A4.48,4.48,0,0,1,25,19.7a13.32,13.32,0,0,1,.44-1.6c0-.06-.08-.38-.84-.39s-1.4.15-1.48.35-.16.66-.31,1.12-2,4.53-2.47,5.59c-.25.54-.46,1-.61,1.26l-.05.1s0-.05,0,0l-.21.39h0c-.1.18-.21.35-.26.35a2.34,2.34,0,0,1,0-1.16c.27-1.42.92-3.63.92-3.7s.12-.42-.43-.63a.69.69,0,0,0-.77.13c-.05,0-.09.12-.09.12s.6-2.49-1.13-2.49c-1.08,0-2.58,1.19-3.32,2.26l-2.52,1.38-1.22.66-.08-.08c-2.1-2.24-6-3.83-5.81-6.83.06-1.1.44-4,7.45-7.47C18,6.17,22.62,7,23.42,8.7,24.55,11.19,21,15.83,15,16.5a4.5,4.5,0,0,1-3.77-1c-.31-.34-.36-.36-.47-.3s-.07.41,0,.59a3.5,3.5,0,0,0,2.15,1.7,11.4,11.4,0,0,0,7-.69c3.62-1.4,6.44-5.28,5.62-8.54S19.18,3.91,14,5.75a26.07,26.07,0,0,0-8.84,5.07c-2.85,2.67-3.31,5-3.12,6,.66,3.45,5.42,5.7,7.33,7.37l-.26.15c-1,.47-4.59,2.37-5.5,4.37-1,2.28.17,3.91,1,4.13a5.86,5.86,0,0,0,6.31-2.55,6.39,6.39,0,0,0,.56-5.84s0,0,0,0c.24-.15.49-.3.75-.44.48-.29,1-.56,1.37-.78a9.3,9.3,0,0,0-.49,2.49,5.24,5.24,0,0,0,1.12,3.62,1.23,1.23,0,0,0,.9.29c.81,0,1.18-.66,1.58-1.46.5-1,.94-2.11.94-2.11s-.55,3.06.95,3.06c.55,0,1.11-.71,1.35-1.07h0a.28.28,0,0,1,0-.07l.09-.14v0c.22-.38.71-1.26,1.44-2.7.95-1.86,1.86-4.19,1.86-4.19a11.48,11.48,0,0,0,.36,1.51,14.09,14.09,0,0,0,.79,1.76c-.22.31-.36.48-.36.48h0c-.18.24-.38.49-.58.74a21.42,21.42,0,0,0-1.76,2.2.59.59,0,0,0,.16.8,1.37,1.37,0,0,0,.92.15,4,4,0,0,0,1.38-.32,4.7,4.7,0,0,0,1.19-.62,2.64,2.64,0,0,0,1.13-2.33,4.58,4.58,0,0,0-.43-1.65l.2-.3a29.53,29.53,0,0,0,2.06-3.55,10.8,10.8,0,0,0,.37,1.51,10.2,10.2,0,0,0,.66,1.51,6.48,6.48,0,0,0-2,2.58c-.43,1.25-.09,1.82.55,1.95a2,2,0,0,0,1-.21,4.64,4.64,0,0,0,1.27-.65,2.83,2.83,0,0,0,1.39-2.32,4.07,4.07,0,0,0-.31-1.37A7.17,7.17,0,0,1,35,22.32c3.26.38,3.9,2.42,3.78,3.27a2.14,2.14,0,0,1-1,1.47c-.23.14-.3.19-.28.3s.13.15.33.11a2.54,2.54,0,0,0,1.77-2.27c.1-2-1.82-4.18-5.21-4.17ZM9.14,29.52c-1.08,1.17-2.59,1.62-3.24,1.25s-.42-2.14.91-3.4a18.14,18.14,0,0,1,2.54-1.9l.67-.4.07,0a1,1,0,0,1,.17-.1,4.67,4.67,0,0,1-1.12,4.59ZM17,24.16c-.38.92-1.17,3.26-1.65,3.14s-.66-1.89-.08-3.65a8.16,8.16,0,0,1,1.28-2.35c.6-.66,1.25-.88,1.4-.61s-.72,2.89-.95,3.47Zm6.51,3.11c-.16.08-.31.13-.38.09s.07-.14.07-.14S24,26.35,24.35,26c.19-.24.41-.51.64-.82,0,0,0,.06,0,.1A2.77,2.77,0,0,1,23.53,27.27Zm5-1.15c-.11-.08-.1-.36.3-1.21A4.45,4.45,0,0,1,30,23.47a2.21,2.21,0,0,1,.11.64,2.05,2.05,0,0,1-1.52,2Z" transform="translate(-2 -4.86)"/></g></svg>